<svg version="1.2" xmlns="http://www.w3.org/2000/svg" viewBox="0 0 169 26" width="169" height="26"><style>.a{fill:#ff5e29}.b{fill:#ff5e29;stroke:#c7a17a;stroke-linecap:round;stroke-miterlimit:10;stroke-width:1}</style><path class="a" d="m1 12.4h60z"/><path class="a" d="m168 12.4h-60z"/><path fill-rule="evenodd" class="b" d="m1 12.4h60"/><path fill-rule="evenodd" class="b" d="m168 12.4h-60"/><path class="a" d="m75.2 8.3c-2.1 1.5-2.7 5.6-1.2 9.5 1.4 3.8 4.3 6.3 6.9 6.2-0.9-1.8-1.6-4.5-2.7-8.2-1-4-2.1-6.2-3-7.5z"/><path class="a" d="m79.7 15.4c1.1 4.2 1.9 6.7 2.7 8.2 2.6-1.3 3.3-5.5 1.8-9.7-1.6-4-4.8-6.7-7.6-6.2q1.7 2.5 3.1 7.7z"/><path class="a" d="m95.7 2c-2.3-0.6-5.4 1.3-7.2 4.5-1.8 3.1-1.9 6.5-0.4 8.3 0.8-1.7 2.1-3.7 4.2-6.5 2.1-3 3-5 3.4-6.3z"/><path class="a" d="m93.3 9c-2.2 3.2-3.5 5.1-4.1 6.6 2.3 1 5.7-0.9 7.6-4.3 2-3.3 2-7.1 0.1-8.7q-0.8 2.6-3.6 6.4z"/></svg>